<?xml version="1.0" encoding="iso-8859-1"?>
<!-- Generator: Adobe Illustrator 19.0.0, SVG Export Plug-In . SVG Version: 6.00 Build 0)  -->
<svg version="1.1" id="Layer_1" xmlns="http://www.w3.org/2000/svg" xmlns:xlink="http://www.w3.org/1999/xlink" x="0px" y="0px"
	 viewBox="0 0 512 512" style="enable-background:new 0 0 512 512;" xml:space="preserve">
<g>
	<g>
		<path d="M464.401,138.872c0.486-3.601,0.956-7.339,1.417-11.375c16.435-2.458,29.116-16.521,29.116-33.63
			c0-15.898-10.965-29.175-25.711-32.956c-0.068-4.497-0.205-9.216-0.427-14.165C479.241,40.9,486.4,29.858,486.4,17.067
			c0-3.908-0.649-7.731-1.937-11.375C483.26,2.287,480.034,0,476.416,0h-48.29c-3.618,0-6.852,2.287-8.047,5.7
			c-1.297,3.661-1.946,7.484-1.946,11.366c0,2.347,0.239,4.634,0.691,6.852c0.196,0.939,0.572,1.809,0.845,2.722
			c0.367,1.229,0.649,2.492,1.135,3.652c0.461,1.101,1.109,2.091,1.69,3.123c0.478,0.887,0.879,1.826,1.442,2.662
			c0.683,1.015,1.528,1.886,2.313,2.825c0.614,0.742,1.152,1.536,1.835,2.219c0.845,0.845,1.826,1.536,2.748,2.295
			c0.768,0.623,1.459,1.314,2.278,1.877c0.922,0.631,1.971,1.092,2.97,1.638c0.93,0.512,1.809,1.101,2.807,1.519
			c0.964,0.418,2.014,0.649,3.021,0.973c1.118,0.358,2.193,0.794,3.354,1.041c0.99,0.205,2.031,0.222,3.046,0.333
			c1.212,0.145,2.381,0.393,3.627,0.401c0.128,3.328,0.213,6.528,0.265,9.634c-1.135,0.29-2.202,0.751-3.285,1.152
			c-0.555,0.205-1.135,0.358-1.681,0.589c-1.877,0.819-3.678,1.792-5.359,2.918c-0.35,0.23-0.649,0.529-0.99,0.777
			c-1.314,0.947-2.568,1.954-3.729,3.072c-0.512,0.503-0.964,1.041-1.442,1.579c-0.905,0.973-1.758,1.98-2.534,3.063
			c-0.461,0.631-0.879,1.271-1.289,1.946c-0.691,1.101-1.297,2.236-1.852,3.413c-0.341,0.708-0.674,1.391-0.956,2.125
			c-0.512,1.297-0.905,2.662-1.254,4.036c-0.171,0.657-0.384,1.297-0.512,1.971c-0.401,2.074-0.648,4.198-0.648,6.391
			c0,2.133,0.247,4.207,0.631,6.238c0.119,0.623,0.282,1.212,0.435,1.818c0.341,1.425,0.768,2.799,1.28,4.139
			c0.247,0.623,0.486,1.246,0.759,1.86c0.631,1.365,1.34,2.671,2.142,3.942c0.273,0.435,0.503,0.905,0.802,1.34
			c1.075,1.544,2.278,2.995,3.584,4.343c0.606,0.623,1.28,1.152,1.929,1.732c0.759,0.674,1.527,1.34,2.355,1.937
			c0.896,0.666,1.826,1.271,2.782,1.843c0.597,0.35,1.212,0.674,1.826,0.99c1.186,0.614,2.372,1.195,3.644,1.673
			c0,0.009,0.009,0.009,0.009,0.009c-0.452,3.951-0.905,7.637-1.382,11.136c-0.393,0.06-0.742,0.205-1.126,0.265
			c-0.905,0.162-1.766,0.393-2.645,0.631c-1.203,0.316-2.398,0.657-3.558,1.109c-0.862,0.333-1.69,0.708-2.526,1.101
			c-1.084,0.521-2.125,1.075-3.14,1.715c-0.794,0.478-1.562,0.981-2.295,1.527c-0.964,0.7-1.852,1.459-2.739,2.261
			c-0.674,0.614-1.348,1.229-1.971,1.894c-0.828,0.87-1.562,1.818-2.295,2.773c-0.538,0.717-1.101,1.408-1.579,2.167
			c-0.683,1.058-1.246,2.185-1.801,3.302c-0.384,0.768-0.802,1.502-1.126,2.304c-0.538,1.306-0.905,2.679-1.271,4.07
			c-0.179,0.7-0.444,1.365-0.589,2.091c-0.418,2.133-0.666,4.335-0.666,6.588c0,2.074,0.247,4.105,0.614,6.093
			c0.085,0.486,0.179,0.956,0.282,1.434c0.427,1.877,0.973,3.712,1.707,5.461c0.145,0.384,0.35,0.725,0.521,1.092
			c0.631,1.391,1.365,2.731,2.176,4.011c0.333,0.529,0.649,1.05,1.015,1.562c0.981,1.382,2.048,2.705,3.243,3.934
			c0.572,0.589,1.195,1.109,1.801,1.656c0.708,0.631,1.442,1.254,2.219,1.826c0.811,0.623,1.621,1.237,2.492,1.775l0.009,0.008
			c-1.408,4.975-2.816,9.617-4.224,13.995c-0.521-0.06-1.007,0.043-1.519,0.009c-0.606-0.034-1.186-0.188-1.801-0.188
			c-0.674,0-1.306,0.162-1.971,0.205c-1.254,0.06-2.475,0.162-3.695,0.375c-1.024,0.171-2.005,0.41-3.012,0.683
			c-1.229,0.324-2.441,0.666-3.618,1.118c-0.998,0.384-1.929,0.862-2.876,1.34c-1.041,0.521-2.074,1.033-3.055,1.655
			c-1.041,0.657-1.98,1.425-2.935,2.193c-0.768,0.614-1.562,1.195-2.278,1.877c-1.033,0.981-1.937,2.065-2.833,3.174
			c-0.521,0.623-1.084,1.203-1.553,1.869c-0.913,1.297-1.655,2.697-2.389,4.105c-0.316,0.614-0.708,1.186-0.981,1.818
			c-0.7,1.562-1.186,3.234-1.638,4.915c-0.154,0.572-0.41,1.118-0.529,1.698c-0.486,2.304-0.768,4.668-0.768,7.108
			c0,2.492,0.299,4.915,0.819,7.262c0.077,0.384,0.247,0.734,0.341,1.109c0.503,1.988,1.143,3.908,1.971,5.734
			c0.188,0.384,0.418,0.734,0.606,1.109c0.887,1.766,1.886,3.447,3.055,5.018c0.29,0.393,0.623,0.742,0.922,1.118
			c1.203,1.485,2.492,2.859,3.925,4.13c0.179,0.154,0.299,0.358,0.486,0.504c-1.638,3.055-3.294,6.024-4.966,8.934
			c-2.313-0.495-4.702-0.785-7.159-0.785c-18.825,0-34.133,15.309-34.133,34.133c0,2.031,0.247,4.036,0.606,6.016
			c0.094,0.538,0.196,1.058,0.307,1.587c0.418,1.792,0.939,3.558,1.647,5.257c0.239,0.589,0.546,1.126,0.819,1.698
			c0.35,0.708,0.649,1.442,1.041,2.125c-2.799,2.952-5.521,5.7-8.209,8.269c-0.512-0.427-1.092-0.742-1.63-1.135
			c-0.674-0.495-1.34-0.973-2.048-1.425c-1.092-0.691-2.227-1.271-3.379-1.843c-0.742-0.35-1.459-0.725-2.227-1.033
			c-1.297-0.503-2.628-0.879-3.977-1.229c-0.708-0.188-1.382-0.427-2.108-0.572c-2.108-0.401-4.25-0.648-6.443-0.648
			c-2.15,0-4.232,0.247-6.263,0.631c-0.649,0.119-1.254,0.307-1.869,0.461c-1.408,0.341-2.765,0.759-4.096,1.271
			c-0.657,0.256-1.289,0.512-1.92,0.794c-1.323,0.614-2.586,1.314-3.806,2.074c-0.486,0.307-0.998,0.572-1.468,0.896
			c-1.63,1.135-3.157,2.381-4.574,3.772c-0.247,0.256-0.452,0.538-0.7,0.794c-1.126,1.195-2.167,2.449-3.123,3.78
			c-0.384,0.555-0.725,1.118-1.075,1.69c-0.734,1.161-1.382,2.364-1.971,3.627c-0.29,0.623-0.589,1.246-0.836,1.886
			c-0.145,0.384-0.358,0.725-0.486,1.109l-39.492-29.611c-0.35-0.265-0.759-0.393-1.135-0.589c-0.324-0.171-0.614-0.375-0.964-0.512
			c-1.954-0.742-4.087-0.742-6.042,0c-0.35,0.137-0.64,0.341-0.964,0.512c-0.375,0.196-0.785,0.324-1.135,0.589l-39.492,29.611
			c-0.128-0.384-0.341-0.725-0.486-1.109c-0.247-0.64-0.546-1.263-0.836-1.886c-0.589-1.263-1.237-2.466-1.971-3.627
			c-0.35-0.572-0.691-1.135-1.075-1.69c-0.956-1.331-1.997-2.586-3.123-3.78c-0.247-0.256-0.452-0.538-0.7-0.794
			c-1.417-1.391-2.944-2.637-4.574-3.772c-0.469-0.324-0.981-0.589-1.468-0.896c-1.22-0.759-2.483-1.459-3.806-2.074
			c-0.631-0.282-1.263-0.538-1.92-0.794c-1.331-0.512-2.688-0.93-4.096-1.271c-0.614-0.154-1.22-0.341-1.869-0.461
			c-2.031-0.384-4.113-0.631-6.263-0.631c-2.193,0-4.352,0.247-6.46,0.648c-0.717,0.145-1.391,0.384-2.091,0.572
			c-1.357,0.35-2.697,0.725-4.002,1.237c-0.768,0.307-1.476,0.683-2.21,1.033c-1.161,0.572-2.295,1.161-3.388,1.843
			c-0.717,0.461-1.391,0.947-2.074,1.451c-0.546,0.401-1.135,0.725-1.647,1.161c-2.79-2.637-5.53-5.367-8.209-8.192
			c0.435-0.776,0.794-1.604,1.169-2.398c0.247-0.503,0.521-0.973,0.725-1.476c0.717-1.724,1.246-3.516,1.664-5.342
			c0.119-0.521,0.213-1.041,0.316-1.57c0.358-1.98,0.606-3.994,0.606-6.033c0-18.825-15.309-34.133-34.133-34.133
			c-2.475,0-4.873,0.29-7.202,0.802c-1.792-3.072-3.439-6.016-4.992-8.883c0.205-0.179,0.35-0.401,0.555-0.572
			c1.391-1.229,2.645-2.569,3.823-4.011c0.341-0.41,0.7-0.802,1.015-1.229c1.143-1.527,2.116-3.174,2.995-4.898
			c0.205-0.418,0.461-0.802,0.666-1.229c0.828-1.792,1.442-3.686,1.946-5.632c0.111-0.418,0.29-0.794,0.375-1.212
			c0.512-2.355,0.819-4.77,0.819-7.27c0-2.44-0.282-4.804-0.768-7.108c-0.119-0.572-0.367-1.109-0.521-1.672
			c-0.452-1.69-0.947-3.371-1.647-4.941c-0.273-0.631-0.666-1.203-0.981-1.809c-0.725-1.417-1.476-2.816-2.389-4.113
			c-0.478-0.683-1.05-1.271-1.587-1.911c-0.887-1.084-1.766-2.159-2.782-3.115c-0.751-0.717-1.579-1.331-2.389-1.98
			c-0.913-0.725-1.809-1.451-2.79-2.082c-1.033-0.666-2.133-1.212-3.243-1.758c-0.879-0.435-1.741-0.879-2.662-1.237
			c-1.237-0.486-2.526-0.845-3.831-1.186c-0.922-0.247-1.843-0.478-2.79-0.631c-1.263-0.222-2.534-0.333-3.823-0.393
			c-0.657-0.034-1.271-0.196-1.929-0.196c-0.606,0-1.186,0.154-1.783,0.188c-0.512,0.026-0.998-0.068-1.51-0.009
			c-1.545-4.736-2.97-9.37-4.292-13.961l0.077-0.051c0.836-0.521,1.613-1.109,2.398-1.707c0.819-0.606,1.596-1.263,2.355-1.946
			c0.572-0.512,1.161-0.998,1.698-1.553c1.212-1.254,2.295-2.594,3.294-3.994c0.341-0.486,0.648-0.981,0.964-1.485
			c0.845-1.331,1.604-2.714,2.253-4.147c0.154-0.333,0.333-0.64,0.469-0.981c0.734-1.766,1.289-3.61,1.724-5.504
			c0.094-0.469,0.188-0.939,0.273-1.408c0.367-1.997,0.614-4.028,0.614-6.11c0-2.253-0.247-4.454-0.666-6.588
			c-0.145-0.734-0.41-1.408-0.597-2.116c-0.367-1.374-0.725-2.748-1.254-4.036c-0.333-0.811-0.759-1.553-1.143-2.321
			c-0.555-1.126-1.118-2.236-1.783-3.285c-0.486-0.768-1.058-1.476-1.613-2.202c-0.717-0.939-1.442-1.869-2.261-2.731
			c-0.631-0.683-1.314-1.314-2.005-1.937c-0.87-0.785-1.749-1.536-2.697-2.227c-0.751-0.546-1.527-1.067-2.33-1.553
			c-1.007-0.623-2.039-1.178-3.106-1.698c-0.845-0.393-1.69-0.777-2.56-1.109c-1.152-0.444-2.33-0.785-3.516-1.092
			c-0.896-0.239-1.766-0.478-2.688-0.64c-0.384-0.06-0.742-0.205-1.118-0.265c-0.555-3.831-1.033-7.526-1.451-11.11
			c0.026-0.008,0.034-0.008,0.051-0.017c1.246-0.469,2.415-1.041,3.567-1.638c0.674-0.333,1.331-0.683,1.963-1.058
			c0.913-0.546,1.809-1.118,2.671-1.749c0.913-0.666,1.758-1.399,2.603-2.15c0.563-0.503,1.169-0.973,1.707-1.527
			c1.34-1.374,2.569-2.859,3.669-4.437c0.256-0.384,0.461-0.794,0.7-1.178c0.836-1.323,1.596-2.679,2.236-4.113
			c0.265-0.589,0.486-1.169,0.725-1.766c0.521-1.365,0.956-2.773,1.306-4.215c0.154-0.597,0.316-1.178,0.427-1.783
			c0.384-2.039,0.631-4.113,0.631-6.255c0-2.193-0.247-4.318-0.648-6.391c-0.128-0.674-0.341-1.314-0.512-1.971
			c-0.35-1.374-0.742-2.739-1.254-4.036c-0.282-0.734-0.614-1.417-0.956-2.125c-0.555-1.178-1.161-2.313-1.852-3.413
			c-0.41-0.674-0.828-1.314-1.289-1.946c-0.777-1.084-1.63-2.091-2.534-3.063c-0.478-0.538-0.93-1.075-1.442-1.579
			c-1.161-1.118-2.415-2.125-3.729-3.072c-0.341-0.247-0.64-0.546-0.99-0.777c-1.681-1.126-3.482-2.099-5.359-2.918
			c-0.546-0.23-1.126-0.384-1.681-0.589c-1.084-0.401-2.15-0.862-3.285-1.152c0.051-3.106,0.137-6.306,0.265-9.634
			c1.246-0.009,2.415-0.256,3.627-0.401c1.015-0.111,2.057-0.128,3.046-0.333c1.161-0.247,2.244-0.691,3.362-1.05
			c1.007-0.324,2.057-0.546,3.012-0.964c0.998-0.427,1.886-1.015,2.825-1.536c0.998-0.529,2.031-0.99,2.953-1.621
			c0.828-0.563,1.536-1.271,2.304-1.903c0.913-0.751,1.886-1.434,2.722-2.27c0.691-0.691,1.237-1.502,1.86-2.253
			c0.777-0.93,1.613-1.792,2.287-2.79c0.58-0.862,0.99-1.826,1.485-2.739c0.563-1.016,1.195-1.971,1.647-3.046
			c0.512-1.22,0.819-2.543,1.186-3.823c0.247-0.862,0.606-1.672,0.794-2.551c0.452-2.219,0.691-4.497,0.691-6.852
			c0-3.891-0.648-7.706-1.937-11.349c-1.203-3.405-4.429-5.692-8.038-5.692L35.601,0h-0.009c-3.618,0-6.844,2.287-8.047,5.692
			C26.257,9.353,25.6,13.175,25.6,17.067c0,12.791,7.159,23.834,17.604,29.679c-0.222,4.949-0.358,9.668-0.427,14.165
			c-14.746,3.78-25.711,17.058-25.711,32.956c0,17.092,12.655,31.155,29.073,33.63c0.427,3.652,0.922,7.467,1.468,11.366
			C34.773,143.77,25.6,156.126,25.6,170.667c0,18.825,15.309,34.133,34.133,34.133c0.606,0,1.186-0.145,1.783-0.179
			c1.391,4.83,2.91,9.745,4.54,14.711c-8.96,6.161-14.857,16.461-14.857,28.134c0,18.825,15.309,34.133,34.133,34.133
			c2.27,0,4.471-0.247,6.622-0.666c1.596,2.97,3.319,6.059,5.154,9.216c-7.159,6.263-11.776,15.351-11.776,25.583
			c0,18.825,15.309,34.133,34.133,34.133c6.554,0,12.621-1.937,17.818-5.154c3.32,3.465,6.69,6.801,10.138,10.001
			c-1.468,3.806-2.355,7.893-2.355,12.22c0,18.825,15.309,34.133,34.133,34.133v51.2c0,0.085,0.051,0.154,0.06,0.239
			c0.026,1.203,0.265,2.424,0.836,3.576c0.563,1.118,1.382,1.988,2.287,2.731c0.094,0.085,0.137,0.205,0.23,0.282l68.267,51.2
			c0.35,0.265,0.751,0.393,1.135,0.589c0.324,0.179,0.614,0.375,0.973,0.512C253.969,511.77,254.976,512,256,512
			c1.024,0,2.031-0.23,3.012-0.606c0.358-0.136,0.649-0.333,0.973-0.512c0.384-0.196,0.785-0.324,1.135-0.589l68.267-51.2
			c0.094-0.077,0.137-0.196,0.23-0.282c0.905-0.742,1.724-1.613,2.287-2.731c0.572-1.152,0.811-2.372,0.836-3.576
			c0.009-0.085,0.06-0.154,0.06-0.239v-51.2c18.825,0,34.133-15.309,34.133-34.133c0-4.361-0.896-8.491-2.389-12.322
			c3.294-3.072,6.656-6.391,10.044-9.967c5.231,3.26,11.349,5.222,17.946,5.222c18.825,0,34.133-15.309,34.133-34.133
			c0-10.249-4.634-19.345-11.802-25.609c1.715-2.995,3.413-6.067,5.086-9.207c2.176,0.444,4.412,0.683,6.716,0.683
			c18.825,0,34.133-15.309,34.133-34.133c0-11.639-5.871-21.905-14.78-28.066c1.493-4.634,2.978-9.54,4.48-14.771
			c0.597,0.026,1.161,0.171,1.766,0.171c18.825,0,34.133-15.309,34.133-34.133C486.4,156.134,477.235,143.778,464.401,138.872z
			 M196.267,397.807l17.067,8.533v23.586l-17.067,8.533V397.807z M247.467,486.4l-43.563-32.674l17.067-8.533l26.496,19.874V486.4z
			 M247.467,371.2l-26.496,19.874l-17.067-8.533l43.563-32.674V371.2z M264.533,349.867l43.563,32.674l-17.067,8.533L264.533,371.2
			V349.867z M264.533,486.4v-21.333l26.496-19.874l17.067,8.533L264.533,486.4z M315.733,438.46l-17.067-8.533V406.34l17.067-8.533
			V438.46z"/>
	</g>
</g>
<g>
</g>
<g>
</g>
<g>
</g>
<g>
</g>
<g>
</g>
<g>
</g>
<g>
</g>
<g>
</g>
<g>
</g>
<g>
</g>
<g>
</g>
<g>
</g>
<g>
</g>
<g>
</g>
<g>
</g>
</svg>
